# xmcd
#
# Track frame offsets:
#	150
#	17972
#	35005
#
# Disc length: 664 seconds
#
# Revision: 2
# Processed by: cddbd v1.5.2PL0 Copyright (c) Steve Scherf et al.
# Submitted via: EasyCDDAExtractor 10.0.3.1
#
DISCID=20029603
DTITLE=James Blunt - Goodbye My Lover
DYEAR=2006
DGENRE=Alt. Pop/Rock
TTITLE0=Goodbye My Lover [Video Version]
TTITLE1=Where Is My Mind?
TTITLE2=You're Beautiful [Demo]
EXTD=
EXTT0=
EXTT1=
EXTT2=
PLAYORDER=
